<svg xmlns="http://www.w3.org/2000/svg" width="512" height="505.183" viewBox="0 0 512 505.183">
  <g id="business" transform="translate(0.001 -0.5)">
    <path id="Path_1594" data-name="Path 1594" d="M509.914,214.859l-85.7-111.32a10.04,10.04,0,0,0-13.344-2.344l-55.328,35.188h-72.16a9.95,9.95,0,0,0-2.762.461l-55.949,16.105L166.621,137.07,110.211,101.2a10.035,10.035,0,0,0-13.2,2.164L2.226,220.765a10.037,10.037,0,0,0,1.266,13.914l49.68,42.754L97.742,337.5a35.448,35.448,0,0,0,22.3,59.547,35.709,35.709,0,0,0-.414,5.426,35.482,35.482,0,0,0,35.48,35.48c.129,0,.254-.008.379-.012,0,.242-.016.48-.016.723a35.476,35.476,0,0,0,35.48,35.48,36.2,36.2,0,0,0,5.539-.434,35.481,35.481,0,0,0,60.379,21.6l5.426-5.426,2.277,1.836A35.463,35.463,0,0,0,324.7,465.664a35.419,35.419,0,0,0,36.016-36,35.452,35.452,0,0,0,36.012-36.031,35.46,35.46,0,0,0,30.309-54.785L459.581,270.7l48.926-42.1a10.038,10.038,0,0,0,1.406-13.734ZM107,122.949l40.563,25.793-88.238,107.5L23.965,225.808Zm5.723,227.922,12.242-12.242c.371-.371.762-.723,1.16-1.051a15.368,15.368,0,0,1,8.363-3.395c.086-.008.176-.008.262-.012.438-.035.875-.059,1.316-.055a15.31,15.31,0,0,1,10.984,4.824c5.672,6,5.367,15.793-.68,21.84L134.5,372.652a15.4,15.4,0,0,1-21.777-21.781Zm31.5,62.484a15.4,15.4,0,0,1,0-21.777l23.738-23.738a15.563,15.563,0,0,1,17.508-3.023,15.349,15.349,0,0,1,8.484,15.9A16.252,16.252,0,0,1,189.363,390L166,413.355a15.4,15.4,0,0,1-21.781,0Zm35.844,36.191a15.4,15.4,0,0,1,0-21.777L203.8,404.031a15.573,15.573,0,0,1,18.617-2.441,15.325,15.325,0,0,1,7.352,15.563,16.271,16.271,0,0,1-4.562,9.035l-23.359,23.359a15.4,15.4,0,0,1-21.781,0Zm40.828,31.563a15.417,15.417,0,0,1,0-21.777l12.242-12.242c.371-.371.758-.719,1.156-1.047a.17.17,0,0,0,.027-.023,15.347,15.347,0,0,1,6.828-3.172l.176-.023c.43-.078.867-.141,1.3-.18.176-.016.352-.016.531-.027.359-.02.715-.043,1.078-.039a15.3,15.3,0,0,1,10.984,4.824,13.889,13.889,0,0,1,.992,1.168,15.9,15.9,0,0,1-1.734,20.734l-11.809,11.809a15.417,15.417,0,0,1-21.777,0ZM408.176,369.066a15.413,15.413,0,0,1-21.777,0,9.137,9.137,0,0,0-.684-.613L321.16,303.218a10.04,10.04,0,0,0-14.273,14.125l65.254,65.934.023.023a15.4,15.4,0,1,1-21.781,21.781L306.73,360.976a10.039,10.039,0,1,0-14.27,14.125l42.984,43.43a9.522,9.522,0,0,0,.7.785,15.4,15.4,0,1,1-21.785,21.777l-23.824-24.074a10.039,10.039,0,0,0-14.273,14.121l23.16,23.4a8.954,8.954,0,0,0,.707.789,15.4,15.4,0,1,1-21.777,21.781,22.209,22.209,0,0,0-2.277-1.816c-.656-.5-.828-.848-.5-1.645s.828-1.539,1.16-2.352c.367-.906.664-1.84.953-2.777a36.2,36.2,0,0,0,1.3-15.445,35.118,35.118,0,0,0-29.93-30.223,35.808,35.808,0,0,0-8.6-32.309,35.217,35.217,0,0,0-25.289-11.1c-.352,0-.7,0-1.059,0a35.136,35.136,0,0,0-34.781-36.191,36.1,36.1,0,0,0-8.566.91,35.136,35.136,0,0,0-34.426-30.125,35.561,35.561,0,0,0-24.238,9.117L73.3,270.863l92.844-113.109,29.59,8.094-38.645,68.191A35.485,35.485,0,0,0,170.465,282.4q.773.439,1.563.836c.039.02.078.039.121.059a35.71,35.71,0,0,0,4.258,1.785,35.478,35.478,0,0,0,42.418-16.055l25.113-44.316,44.84,3.18,119.4,119.4a15.425,15.425,0,0,1,0,21.781Zm4.16-46.02L300.324,211.039a8.891,8.891,0,0,0-.664-.609,10.046,10.046,0,0,0-5.723-2.3l-54.9-3.895a10.2,10.2,0,0,0-9.445,5.066l-28.234,49.828a15.4,15.4,0,1,1-26.8-15.187l37.691-66.52,15.273-4.395c.1-.031.2-.07.3-.1l57-16.461H353.7l85.984,109.3Zm40.5-73.039L373.324,148.871l40.582-25.809,74.3,96.512Zm0,0" fill="#ffc107"/>
    <path id="Path_1595" data-name="Path 1595" d="M310.184,117.531a10.012,10.012,0,0,0,7.1-2.941l68.578-68.578a10.04,10.04,0,1,0-14.2-14.2L303.086,100.39a10.041,10.041,0,0,0,7.1,17.141Zm0,0" fill="#ffc107"/>
    <path id="Path_1596" data-name="Path 1596" d="M194.715,114.59a10.04,10.04,0,1,0,14.2-14.2L140.336,31.813a10.04,10.04,0,0,0-14.2,14.2Zm0,0" fill="#ffc107"/>
    <path id="Path_1597" data-name="Path 1597" d="M256,117.531a10.041,10.041,0,0,0,10.039-10.039V50.738a10.039,10.039,0,1,0-20.078,0v56.754A10.041,10.041,0,0,0,256,117.531Zm0,0" fill="#ffc107"/>
    <path id="Path_1598" data-name="Path 1598" d="M246.734,14.352a10.033,10.033,0,1,0,15.375-11.8,10.148,10.148,0,0,0-11.68-.383,10.11,10.11,0,0,0-3.7,12.187Zm0,0" fill="#ffc107"/>
  </g>
</svg>
