<svg xmlns="http://www.w3.org/2000/svg" width="509" height="509" viewBox="0 0 509 509">
  <g id="entertaiment" transform="translate(-2 -2)">
    <path id="Path_1608" data-name="Path 1608" d="M56,24h1.131v1.131H56Z" transform="translate(451.607 170.64)" fill="#7e1bff"/>
    <path id="Path_1609" data-name="Path 1609" d="M54,27h2.262v1.131H54Z" transform="translate(452.476 193.909)" fill="#7e1bff"/>
    <path id="Path_1610" data-name="Path 1610" d="M52,30h3.393v1.131H52Z" transform="translate(453.344 217.178)" fill="#7e1bff"/>
    <path id="Path_1611" data-name="Path 1611" d="M0,0H2.924V1.131H0Z" transform="translate(5.889 7.958) rotate(-45)" fill="#7e1bff"/>
    <path id="Path_1612" data-name="Path 1612" d="M0,0H2.924V1.131H0Z" transform="translate(4.193 6.262) rotate(-45)" fill="#7e1bff"/>
    <path id="Path_1613" data-name="Path 1613" d="M485.55,290.433A25.526,25.526,0,0,0,511,264.983V27.45A25.526,25.526,0,0,0,485.55,2H27.45A25.526,25.526,0,0,0,2,27.45V264.983a25.526,25.526,0,0,0,25.45,25.45h99.17A57.2,57.2,0,0,0,138.666,307.4h-.933a25.526,25.526,0,0,0-25.45,25.45v8.483H78.35a25.526,25.526,0,0,0-25.45,25.45V383.75H27.45A25.526,25.526,0,0,0,2,409.2v93.317A8.483,8.483,0,0,0,10.483,511h50.9a8.483,8.483,0,0,0,8.483-8.483v-8.483H443.133v8.483A8.483,8.483,0,0,0,451.617,511h50.9A8.483,8.483,0,0,0,511,502.517V409.2a25.526,25.526,0,0,0-25.45-25.45H460.1V366.783a25.527,25.527,0,0,0-25.45-25.45H400.717V332.85a25.526,25.526,0,0,0-25.45-25.45h-.933a57.2,57.2,0,0,0,12.046-16.967ZM52.9,494.033H18.967V409.2a8.483,8.483,0,0,1,8.483-8.483H52.9Zm407.2-93.317h25.45a8.483,8.483,0,0,1,8.483,8.483v84.833H460.1ZM121.445,273.467h-94a8.483,8.483,0,0,1-8.483-8.483V27.45a8.483,8.483,0,0,1,8.483-8.483h458.1a8.483,8.483,0,0,1,8.483,8.483V264.983a8.483,8.483,0,0,1-8.483,8.483h-94a56.271,56.271,0,0,0,.679-8.483,59.383,59.383,0,1,0-118.767,0,56.283,56.283,0,0,0,.679,8.483H238.855a56.279,56.279,0,0,0,.679-8.483,59.383,59.383,0,1,0-118.767,0A56.277,56.277,0,0,0,121.445,273.467ZM222.567,307.4h-.933a57.2,57.2,0,0,0,12.046-16.967h45.64A57.2,57.2,0,0,0,291.366,307.4h-.933a25.526,25.526,0,0,0-25.45,25.45v8.483H248.017V332.85a25.526,25.526,0,0,0-25.45-25.45Zm-84.833-42.417A42.417,42.417,0,1,1,180.15,307.4,42.417,42.417,0,0,1,137.733,264.983ZM129.25,332.85a8.483,8.483,0,0,1,8.483-8.483h84.833a8.483,8.483,0,0,1,8.483,8.483v8.483H129.25Zm305.4,25.45a8.483,8.483,0,0,1,8.483,8.483V477.067H69.867V366.783A8.483,8.483,0,0,1,78.35,358.3Zm-59.383-33.933a8.483,8.483,0,0,1,8.483,8.483v8.483H281.95V332.85a8.483,8.483,0,0,1,8.483-8.483ZM332.85,307.4a42.417,42.417,0,1,1,42.417-42.417A42.417,42.417,0,0,1,332.85,307.4Z" transform="translate(0 0)" fill="#7e1bff"/>
    <path id="Path_1614" data-name="Path 1614" d="M34.607,13.457,27.82,10.064a.566.566,0,0,0-.82.5v6.787a.566.566,0,0,0,.266.481.573.573,0,0,0,.3.085.583.583,0,0,0,.254-.062l6.787-3.393a.566.566,0,0,0,0-1.007Zm-6.476,2.98V11.483l4.954,2.477Z" transform="translate(247.294 -3.477)" fill="#7e1bff"/>
  </g>
</svg>
