<svg xmlns="http://www.w3.org/2000/svg" width="512" height="478" viewBox="0 0 512 478">
  <g id="general" transform="translate(0 -17)">
    <path id="Path_1587" data-name="Path 1587" d="M497,121H383V32a15,15,0,0,0-15-15H15A15,15,0,0,0,0,32V420a75.085,75.085,0,0,0,75,75H437a75.085,75.085,0,0,0,75-75V136A15,15,0,0,0,497,121ZM75,465a45.051,45.051,0,0,1-45-45V47H353c0,396.466-.189,374.424.344,380.077A74.763,74.763,0,0,0,368.035,465Zm407-45a45.051,45.051,0,0,1-45,45h-9a45.051,45.051,0,0,1-45-45V151h99Z" fill="#6c757d"/>
    <path id="Path_1588" data-name="Path 1588" d="M304,89H80a15,15,0,0,0,0,30H304a15,15,0,0,0,0-30Z" fill="#6c757d"/>
    <path id="Path_1589" data-name="Path 1589" d="M304,153H80a15,15,0,0,0,0,30H304a15,15,0,0,0,0-30Z" fill="#6c757d"/>
    <path id="Path_1590" data-name="Path 1590" d="M304,393H80a15,15,0,0,0,0,30H304a15,15,0,0,0,0-30Z" fill="#6c757d"/>
    <path id="Path_1591" data-name="Path 1591" d="M304,217H192a15,15,0,0,0-15,15V344a15,15,0,0,0,15,15H304a15,15,0,0,0,15-15V232A15,15,0,0,0,304,217ZM289,329H207V247h82Z" fill="#6c757d"/>
    <path id="Path_1592" data-name="Path 1592" d="M80,271h48a15,15,0,0,0,0-30H80a15,15,0,0,0,0,30Z" fill="#6c757d"/>
    <path id="Path_1593" data-name="Path 1593" d="M80,335h48a15,15,0,0,0,0-30H80a15,15,0,0,0,0,30Z" fill="#6c757d"/>
  </g>
</svg>
