<svg xmlns="http://www.w3.org/2000/svg" width="512" height="460.19" viewBox="0 0 512 460.19">
  <g id="health" transform="translate(0 -25.905)">
    <path id="Path_1602" data-name="Path 1602" d="M10,466.1H96a10,10,0,0,0,10-10v-9.773c32.327,1.478,53.74,10.04,76.286,19.058C207.747,475.565,234.074,486.1,276,486.1c18.417,0,130.151-39.752,165.645-51.966,5.223-1.8-76.4,26.072-78.2,20.85s75.361-40.954,70.141-39.156C400.193,427.314,292.2,466.1,276,466.1c-38.074,0-61.492-9.367-86.286-19.285-23.373-9.349-47.485-18.984-83.714-20.5v-101.6c6.41-1.66,12.868-4.6,19.57-7.657,19.712-9,42.054-19.2,72.677-1.97l48.274,27.158a30.051,30.051,0,0,0,14.719,3.857H326a20,20,0,0,1,7.214,38.648A19.7,19.7,0,0,1,326,386.095H224.34a10,10,0,0,0,0,20H326a39.589,39.589,0,0,0,14.086-2.574c.08-.027.161-.046.241-.076,0,0,124.383-45.979,124.435-46a20.008,20.008,0,0,1,15.809,36.731c-1.711.825-3.425,1.656-6.734,3.232l-2.893-5.786a10,10,0,0,0-17.889,8.945l2.656,5.313c-6.546,3-13.987,6.363-22.123,9.943-5.055,2.225-72.367,34.1-70.141,39.156s73.15-18.63,78.2-20.85c19.672-8.658,32.69-14.8,47.467-21.867a40.008,40.008,0,0,0-31.511-73.49l-92.193,34.079a39.366,39.366,0,0,0,.592-6.756,40.045,40.045,0,0,0-40-40H261.24a10.007,10.007,0,0,1-4.907-1.285l-48.28-27.161c-39.484-22.208-69.136-8.674-90.786,1.206-8.512,3.885-15.862,7.24-21.267,7.24H10a10,10,0,0,0-10,10v140a10,10,0,0,0,10,10Zm10-140H86L74.913,384.743,86,446.1H20l6.18-58.945Z" fill="#198754"/>
    <path id="Path_1603" data-name="Path 1603" d="M330.623,284.449a10,10,0,0,0,10.993,0C488.3,187.938,493.136,116.527,482.96,82.55c-11.136-37.188-47.1-56.645-76.86-56.645-35.159,0-58.4,20.093-69.979,33.486C324.539,46,301.3,25.905,266.151,25.905c-29.732,0-65.668,19.49-76.824,56.742C179.157,116.6,183.992,187.969,330.623,284.449ZM208.485,88.385c8.263-27.591,35.878-42.479,57.665-42.479,39.883,0,60.446,33.742,61.352,35.263a10,10,0,0,0,17.25-.024c.206-.353,21.079-35.239,61.348-35.239,21.819,0,49.457,14.854,57.7,42.382,6.816,22.762,7.731,85.058-127.681,175.805C200.763,173.378,201.674,111.129,208.485,88.385Z" fill="#198754"/>
    <path id="Path_1604" data-name="Path 1604" d="M296,166.1h30v30a10,10,0,1,0,20,0v-30h30a10,10,0,0,0,0-20H346v-30a10,10,0,0,0-20,0v30H296a10,10,0,0,0,0,20Z" fill="#198754"/>
    <circle id="Ellipse_7" data-name="Ellipse 7" cx="10" cy="10" r="10" transform="translate(386 432.095)" fill="#198754"/>
  </g>
</svg>
