<svg xmlns="http://www.w3.org/2000/svg" width="174.208" height="91.015" viewBox="0 0 174.208 91.015">
  <g id="News_logo" transform="translate(-417.664 -9880.82)">
    <path id="Path_1579" data-name="Path 1579" d="M72.357,417.376l46.786-73.743,46.786,73.743Z" transform="translate(415 9554.459)" fill="#fff" opacity="0.25"/>
    <path id="Path_1580" data-name="Path 1580" d="M81.653,412.527,97.37,387.754l31.069-48.97,46.786,73.743Z" transform="translate(367 9542.036)" fill="#fff" opacity="0.49"/>
    <g id="Group_234" data-name="Group 234" transform="translate(147 9841)">
      <rect id="Rectangle_12" data-name="Rectangle 12" width="46.259" height="4.503" transform="translate(274.398 100.755)" fill="#fff" opacity="0.82"/>
      <rect id="Rectangle_13" data-name="Rectangle 13" width="42.712" height="4.157" transform="translate(277.946 93.539)" fill="#fff" opacity="0.82"/>
      <rect id="Rectangle_14" data-name="Rectangle 14" width="38.563" height="3.753" transform="translate(282.095 86.728)" fill="#fff" opacity="0.82"/>
      <rect id="Rectangle_15" data-name="Rectangle 15" width="25.204" height="4.503" transform="translate(415.749 94.409)" fill="#fff" opacity="0.82"/>
      <rect id="Rectangle_16" data-name="Rectangle 16" width="21.656" height="4.157" transform="translate(415.749 102.091)" fill="#fff" opacity="0.82"/>
      <rect id="Rectangle_17" data-name="Rectangle 17" width="17.508" height="3.753" transform="translate(415.749 109.428)" fill="#fff" opacity="0.82"/>
      <g id="Group_233" data-name="Group 233">
        <path id="Path_1575" data-name="Path 1575" d="M335.129,86.728l-2.888,16.7-6.305-16.7h-6.068l-3.736,21.588H270.664v4.866H321.5l2.907-16.7,6.324,16.7h6.013l4.6-26.454Z" fill="#fff"/>
        <path id="Path_1576" data-name="Path 1576" d="M340.816,113.181h17.715l.853-4.906h-11.5l1.108-6.322h9.721l.817-4.724h-9.738l.981-5.578h11.519l.853-4.924H345.395Z" fill="#fff"/>
        <path id="Path_1577" data-name="Path 1577" d="M388.29,86.728l-5.523,16.515-.981-16.515H376.5l-6.069,16.442-.363-16.442h-6.05l1.326,26.454h6.432l5.706-14.989,1.071,14.989h6.432l9.593-26.454Z" fill="#fff"/>
        <path id="Path_1578" data-name="Path 1578" d="M444.872,91.229V86.363H406.6l0,.012a14.128,14.128,0,0,0-5.058.916,9.075,9.075,0,0,0-3.87,2.7,6.774,6.774,0,0,0-1.526,3.952q-.309,4.851,5.959,7.667l2.98,1.235q2.616,1.128,2.217,3.18a2.978,2.978,0,0,1-1.281,1.989,4.5,4.5,0,0,1-2.607.718,3.751,3.751,0,0,1-3-1.045,4.263,4.263,0,0,1-.781-3.08l-6.232-.018a8.048,8.048,0,0,0,2.544,6.45,8.744,8.744,0,0,0,3.143,1.854,12.755,12.755,0,0,0,3.978.671,13.58,13.58,0,0,0,5.279-.908,8.506,8.506,0,0,0,3.679-2.671,7.189,7.189,0,0,0,1.472-4.015q.271-4.415-4.07-7.013a29.711,29.711,0,0,0-4.425-2q-3.042-1.163-2.7-2.98a2.953,2.953,0,0,1,1.417-2.053,4.706,4.706,0,0,1,2.328-.708l0,.013Z" fill="#fff"/>
      </g>
    </g>
  </g>
</svg>
