<svg xmlns="http://www.w3.org/2000/svg" width="471.691" height="512" viewBox="0 0 471.691 512">
  <g id="science" transform="translate(-20.154)">
    <path id="Path_1605" data-name="Path 1605" d="M479.975,396.734,331,162.632V90a45,45,0,0,0,0-90H181a45,45,0,0,0,0,90v72.632L32.026,396.734C.216,446.723,36.059,512,95.3,512H416.7C475.951,512,511.78,446.714,479.975,396.734ZM208.656,175.053A15,15,0,0,0,211,167V90a15,15,0,1,0,0-30H181a15,15,0,0,1,0-30H331a15,15,0,0,1,0,30H301a15,15,0,0,0,0,30v77a15,15,0,0,0,2.345,8.053l40.783,64.087a134.642,134.642,0,0,0-103.012,19.755l-46.871,31.248a104.516,104.516,0,0,1-69.667,17.034ZM416.7,482H95.3c-35.55,0-57.049-39.171-37.965-69.159l49.762-78.2A134.171,134.171,0,0,0,210.884,315.1l46.871-31.248a104.7,104.7,0,0,1,113.686-1.794l83.222,130.778C473.752,442.833,452.245,482,416.7,482Z" fill="#d90df0"/>
    <path id="Path_1606" data-name="Path 1606" d="M166,362a45,45,0,1,0,45,45A45.051,45.051,0,0,0,166,362Zm0,60a15,15,0,1,1,15-15A15.017,15.017,0,0,1,166,422Z" fill="#d90df0"/>
    <path id="Path_1607" data-name="Path 1607" d="M316,302a45,45,0,1,0,45,45A45.051,45.051,0,0,0,316,302Zm0,60a15,15,0,1,1,15-15A15.017,15.017,0,0,1,316,362Z" fill="#d90df0"/>
    <circle id="Ellipse_8" data-name="Ellipse 8" cx="15" cy="15" r="15" transform="translate(241 392)" fill="#d90df0"/>
    <circle id="Ellipse_9" data-name="Ellipse 9" cx="15" cy="15" r="15" transform="translate(361 392)" fill="#d90df0"/>
    <circle id="Ellipse_10" data-name="Ellipse 10" cx="15" cy="15" r="15" transform="translate(301 422)" fill="#d90df0"/>
  </g>
</svg>
