<svg xmlns="http://www.w3.org/2000/svg" width="512" height="464.999" viewBox="0 0 512 464.999">
  <g id="technologysvg" transform="translate(0 -23.501)">
    <g id="Group_252" data-name="Group 252">
      <path id="Path_1599" data-name="Path 1599" d="M500.5,423.5H475.477a27.314,27.314,0,0,0,3.023-12.51l-.008-203.495a7.5,7.5,0,1,0-15,0L463.5,410.99a12.514,12.514,0,0,1-12.5,12.5l-389.99.01A12.514,12.514,0,0,1,48.51,411L48.5,151.01A12.514,12.514,0,0,1,61,138.51l199.009-.009a17.167,17.167,0,0,0-.938,15H232.487l-.045,0H218.867l-.061,0L71,153.51a7.5,7.5,0,0,0-7.5,7.5L63.507,319.4a7.5,7.5,0,0,0,15,0L78.5,168.51l123.169-.006c-1.023,4.087-2.168,9.087-2.711,12.941a2.161,2.161,0,0,1-1.073,1.549l-12.542,7.224a2.172,2.172,0,0,1-1.889.155c-4.259-1.717-10.347-3.519-14.706-4.728a17.222,17.222,0,0,0-19.505,7.959l-6.778,11.712a17.185,17.185,0,0,0,2.861,20.9c3.221,3.152,7.818,7.5,11.438,10.323a2.143,2.143,0,0,1,.8,1.691v14.43a2.15,2.15,0,0,1-.8,1.693,153.679,153.679,0,0,0-11.438,10.322,17.185,17.185,0,0,0-2.861,20.9l6.778,11.712a17.214,17.214,0,0,0,19.507,7.958c4.357-1.208,10.445-3.01,14.707-4.728a2.178,2.178,0,0,1,1.885.155l12.543,7.224a2.163,2.163,0,0,1,1.073,1.549,153.319,153.319,0,0,0,3.24,15.028,17.22,17.22,0,0,0,16.668,12.917h13.575a17.218,17.218,0,0,0,16.667-12.916,153.172,153.172,0,0,0,3.241-15.029,2.169,2.169,0,0,1,1.073-1.549l12.544-7.224a2.174,2.174,0,0,1,1.887-.154c4.259,1.717,10.347,3.519,14.706,4.728a17.226,17.226,0,0,0,19.505-7.959l6.778-11.712a17.185,17.185,0,0,0-2.861-20.9,153.641,153.641,0,0,0-11.438-10.321,2.153,2.153,0,0,1-.8-1.694v-14.43a2.145,2.145,0,0,1,.8-1.692,153.672,153.672,0,0,0,11.438-10.322,17.185,17.185,0,0,0,2.861-20.9L302.063,193.6a17.216,17.216,0,0,0-19.507-7.958c-4.357,1.208-10.445,3.01-14.707,4.728a2.189,2.189,0,0,1-1.885-.155l-12.544-7.226a2.159,2.159,0,0,1-1.072-1.547c-.544-3.855-1.689-8.857-2.711-12.944h17.99a17.217,17.217,0,0,0,18.734,6.744c4.359-1.209,10.449-3.011,14.707-4.728a2.182,2.182,0,0,1,1.885.155L315.5,177.9a2.163,2.163,0,0,1,1.073,1.549,153.606,153.606,0,0,0,3.24,15.028,17.22,17.22,0,0,0,16.668,12.917h13.575a17.218,17.218,0,0,0,16.667-12.916,152.884,152.884,0,0,0,3.241-15.029,2.169,2.169,0,0,1,1.073-1.549l12.543-7.224a2.177,2.177,0,0,1,1.888-.154c4.259,1.717,10.347,3.519,14.706,4.728A17.226,17.226,0,0,0,418.9,168.5h14.586l.01,224.99L78.51,393.5l0-41.727a7.5,7.5,0,0,0-15,0l0,49.227a7.5,7.5,0,0,0,7.5,7.5L441,408.49a7.5,7.5,0,0,0,7.5-7.5L448.49,161a7.5,7.5,0,0,0-7.5-7.5H427.461a17.168,17.168,0,0,0-.939-15H450.99a12.514,12.514,0,0,1,12.5,12.5v24.681a7.5,7.5,0,0,0,15,0V151a27.532,27.532,0,0,0-27.5-27.5H411.529a2.212,2.212,0,0,1-.175-.841v-14.43a2.143,2.143,0,0,1,.8-1.692c3.619-2.821,8.217-7.171,11.437-10.322a17.185,17.185,0,0,0,2.861-20.9L419.677,63.6a17.214,17.214,0,0,0-19.507-7.958c-4.362,1.21-10.454,3.012-14.707,4.728a2.189,2.189,0,0,1-1.885-.155l-12.544-7.226a2.159,2.159,0,0,1-1.072-1.547,153.522,153.522,0,0,0-3.24-15.028A17.22,17.22,0,0,0,350.054,23.5H336.479a17.218,17.218,0,0,0-16.667,12.916,153.126,153.126,0,0,0-3.241,15.028,2.161,2.161,0,0,1-1.073,1.549l-12.542,7.224a2.175,2.175,0,0,1-1.886.156c-4.249-1.714-10.343-3.518-14.709-4.729A17.223,17.223,0,0,0,266.856,63.6l-6.778,11.712a17.185,17.185,0,0,0,2.861,20.9c3.218,3.15,7.814,7.5,11.438,10.323a2.143,2.143,0,0,1,.8,1.691v14.43a2.216,2.216,0,0,1-.175.841l-214,.01a27.532,27.532,0,0,0-27.5,27.5L33.51,411a27.322,27.322,0,0,0,3.018,12.5H11.5A11.513,11.513,0,0,0,0,435v20a33.538,33.538,0,0,0,33.5,33.5H383.865a7.5,7.5,0,0,0,0-15H33.5A18.521,18.521,0,0,1,15,455V438.5H202.5V443A19.523,19.523,0,0,0,222,462.5h68A19.522,19.522,0,0,0,309.5,443v-4.5H497V455a18.521,18.521,0,0,1-18.5,18.5H416.236a7.5,7.5,0,0,0,0,15H478.5A33.538,33.538,0,0,0,512,455V435a11.513,11.513,0,0,0-11.5-11.5ZM234.587,170.172A135.646,135.646,0,0,1,237.5,183.54a17.038,17.038,0,0,0,8.44,12.451l12.544,7.226a17.062,17.062,0,0,0,14.98,1.067,137.261,137.261,0,0,1,13.1-4.185,2.216,2.216,0,0,1,2.517,1.018l6.778,11.712a2.193,2.193,0,0,1-.373,2.667,135.922,135.922,0,0,1-10.163,9.208,17.023,17.023,0,0,0-6.582,13.525v14.43a17.021,17.021,0,0,0,6.582,13.525,136,136,0,0,1,10.163,9.209,2.193,2.193,0,0,1,.373,2.667l-6.778,11.712a2.227,2.227,0,0,1-2.515,1.019,137.071,137.071,0,0,1-13.1-4.185,17.056,17.056,0,0,0-14.984,1.067L245.935,294.9a17.044,17.044,0,0,0-8.44,12.452h0a135.538,135.538,0,0,1-2.91,13.368,2.221,2.221,0,0,1-2.145,1.671H218.865a2.222,2.222,0,0,1-2.146-1.672,135.646,135.646,0,0,1-2.909-13.368,17.044,17.044,0,0,0-8.44-12.452l-12.542-7.224a17.05,17.05,0,0,0-14.983-1.068,137.263,137.263,0,0,1-13.1,4.185,2.215,2.215,0,0,1-2.517-1.018l-6.778-11.712a2.193,2.193,0,0,1,.373-2.667,136.259,136.259,0,0,1,10.164-9.21,17.021,17.021,0,0,0,6.581-13.524v-14.43a17.018,17.018,0,0,0-6.582-13.524,136,136,0,0,1-10.163-9.209,2.193,2.193,0,0,1-.373-2.667l6.778-11.712a2.226,2.226,0,0,1,2.515-1.019,137.08,137.08,0,0,1,13.1,4.185,17.062,17.062,0,0,0,14.984-1.067l12.542-7.224a17.04,17.04,0,0,0,8.441-12.453,135.538,135.538,0,0,1,2.91-13.368,2.218,2.218,0,0,1,2.113-1.668h13.63a2.221,2.221,0,0,1,2.124,1.67ZM273.433,85.5a2.193,2.193,0,0,1-.373-2.667l6.778-11.712a2.224,2.224,0,0,1,2.515-1.019,136.626,136.626,0,0,1,13.1,4.185,17.058,17.058,0,0,0,14.984-1.067l12.542-7.224a17.04,17.04,0,0,0,8.441-12.453,135.291,135.291,0,0,1,2.91-13.368,2.221,2.221,0,0,1,2.145-1.671h13.575a2.223,2.223,0,0,1,2.146,1.672,135.4,135.4,0,0,1,2.909,13.368,17.038,17.038,0,0,0,8.44,12.451l12.545,7.226a17.051,17.051,0,0,0,14.981,1.066,137.1,137.1,0,0,1,13.1-4.184,2.217,2.217,0,0,1,2.517,1.018l6.778,11.712A2.193,2.193,0,0,1,413.1,85.5,136.142,136.142,0,0,1,402.94,94.7a17.02,17.02,0,0,0-6.585,13.526v14.43a17.021,17.021,0,0,0,6.582,13.525,135.829,135.829,0,0,1,10.163,9.209,2.193,2.193,0,0,1,.373,2.667L406.7,159.772a2.224,2.224,0,0,1-2.515,1.019,137.08,137.08,0,0,1-13.1-4.185,17.058,17.058,0,0,0-14.984,1.067L363.549,164.9a17.044,17.044,0,0,0-8.44,12.452h0a135.538,135.538,0,0,1-2.91,13.368,2.221,2.221,0,0,1-2.145,1.671H336.479a2.223,2.223,0,0,1-2.146-1.672,135.646,135.646,0,0,1-2.909-13.368,17.044,17.044,0,0,0-8.44-12.452l-12.542-7.224a17.05,17.05,0,0,0-14.983-1.068,137.081,137.081,0,0,1-13.1,4.185,2.216,2.216,0,0,1-2.517-1.018l-1.328-2.295c-.042-.079-.089-.154-.133-.23l-5.317-9.187a2.193,2.193,0,0,1,.373-2.667,136.413,136.413,0,0,1,10.164-9.21,17.021,17.021,0,0,0,6.581-13.524v-14.43A17.02,17.02,0,0,0,283.6,94.705,135.922,135.922,0,0,1,273.433,85.5ZM294.5,443a4.506,4.506,0,0,1-4.5,4.5H222a4.505,4.505,0,0,1-4.5-4.5v-4.5h77Z" fill="#0d6efd"/>
      <path id="Path_1600" data-name="Path 1600" d="M343.267,156.286a40.842,40.842,0,1,0-40.924-40.842A40.929,40.929,0,0,0,343.267,156.286ZM331.58,138.5h23.374a25.906,25.906,0,0,1-23.374,0Zm11.687-48.9a25.911,25.911,0,0,1,25.924,25.841,25.634,25.634,0,0,1-1.3,8.056H318.64a25.817,25.817,0,0,1,24.627-33.9Z" fill="#0d6efd"/>
      <path id="Path_1601" data-name="Path 1601" d="M184.73,245.444A40.924,40.924,0,1,0,225.654,204.6a40.929,40.929,0,0,0-40.924,40.841Zm66.848,0A25.924,25.924,0,1,1,225.654,219.6a25.912,25.912,0,0,1,25.924,25.841Z" fill="#0d6efd"/>
    </g>
  </g>
</svg>
